#!OML:ASF F:\VICON\USERDATA\INSTALL\Justin_Nancy\Justin_Nancy.ASF
:FULLY-SPECIFIED
:DEGREES
182
root -0.42455 17.0641 5.11758 6.99241 38.9171 7.72626
lowerback 8.22553 -1.15378 -7.16345
upperback 1.03704 -2.11931 1.18596
thorax -3.22831 -0.956268 5.50078
lowerneck -15.518 -2.39639 -8.92898
upperneck 21.5274 -1.77725 3.47482
head 9.48598 -1.1399 2.47397
rclavicle 4.3832e-014 0
rhumerus -37.5836 -11.4352 -79.5887
rradius 33.5825
rwrist 2.97112
rhand -16.3505 12.4241
rfingers 7.12502
rthumb 9.86199 -17.325
lclavicle 4.3832e-014 0
lhumerus -30.4661 1.27418 88.8048
lradius 38.2787
lwrist -1.15559
lhand -15.3168 26.1162
lfingers 7.12502
lthumb 10.8592 55.8155
rfemur -35.5565 1.61762 9.52267
rtibia 39.0367
rfoot -6.98915 -4.03395
rtoes -5.85608
lfemur -2.05243 0.0083182 -35.6151
ltibia 26.9507
lfoot -19.9378 4.09767
ltoes 7.17156
183
root -0.302722 17.0636 5.31461 7.18047 39.045 7.55864
lowerback 8.08882 -1.23554 -7.1837
upperback 0.979688 -2.21808 1.29883
thorax -3.19214 -1.00492 5.63708
lowerneck -15.992 -2.45273 -9.23391
upperneck 21.8222 -1.75358 3.57694
head 9.68205 -1.14511 2.56622
rclavicle 2.82274e-014 -9.54166e-015
rhumerus -37.6906 -11.3902 -79.6819
rradius 33.5277
rwrist 3.16442
rhand -16.6772 12.7731
rfingers 7.12502
rthumb 9.5468 -16.9906
lclavicle 2.82274e-014 -9.54166e-015
lhumerus -30.4205 0.444563 88.7741
lradius 39.6624
lwrist -0.659014
lhand -15.4828 26.3302
lfingers 7.12502
lthumb 10.6991 56.0378
rfemur -36.0923 1.55388 9.77971
rtibia 36.0473
rfoot -4.78672 -4.96381
rtoes -4.36374
lfemur -0.735171 0.498797 -35.2676
ltibia 25.3705
lfoot -19.5772 3.77346
ltoes 7.01805
184
root -0.149241 17.0567 5.53943 7.94192 39.7703 9.16219
lowerback 8.06191 -1.46322 -8.32471
upperback 1.10028 -2.62433 0.947852
thorax -2.95488 -1.20863 5.94609
lowerneck -16.0569 -2.4863 -9.17486
upperneck 21.9528 -1.819 3.61509
head 9.74433 -1.16801 2.56296
rclavicle 2.74323e-014 2.06736e-014
rhumerus -37.9548 -11.526 -79.7548
rradius 33.465
rwrist 3.24049
rhand -16.5678 12.773
rfingers 7.12502
rthumb 9.65231 -16.9859
lclavicle 2.74323e-014 2.06736e-014
lhumerus -30.5454 -0.608776 88.6482
lradius 41.0266
lwrist -0.23584
lhand -15.5024 27.0436
lfingers 7.12502
lthumb 10.6801 56.7522
rfemur -35.5755 1.02649 8.46369
rtibia 33.1593
rfoot -3.5836 -6.36907
rtoes -2.12312
lfemur 1.61199 0.848723 -36.2112
ltibia 23.5902
lfoot -19.3672 2.88581
ltoes 7.2832
185
root -0.0202494 17.0672 5.73141 7.98582 40.0486 8.7669
lowerback 7.83538 -1.53041 -8.04046
upperback 1.01317 -2.67142 1.0264
thorax -2.92143 -1.2343 5.86455
lowerneck -15.7208 -2.4889 -8.96885
upperneck 21.6782 -1.88857 3.52538
head 9.58557 -1.19067 2.48527
rclavicle 1.54555e-013 1.59028e-015
rhumerus -38.1913 -11.5398 -79.8664
rradius 33.3205
rwrist 2.91809
rhand -16.6953 12.7947
rfingers 7.12502
rthumb 9.52936 -16.9698
lclavicle 1.54555e-013 1.59028e-015
lhumerus -30.2007 -1.22501 88.5346
lradius 41.7144
lwrist -0.213143
lhand -15.54 27.0261
lfingers 7.12502
lthumb 10.6439 56.7365
rfemur -35.6572 2.06897 8.54302
rtibia 30.0319
rfoot -2.89622 -8.85178
rtoes -0.329804
lfemur 2.99355 1.33875 -35.5621
ltibia 21.9037
lfoot -19.0233 2.1817
ltoes 5.90502
186
root 0.116937 17.057 5.87701 8.76495 40.5876 9.15796
lowerback 7.85813 -1.73257 -7.77245
upperback 0.769821 -2.934 0.920962
thorax -3.16691 -1.35022 5.63287
lowerneck -15.6274 -2.50546 -8.99522
upperneck 21.5553 -1.90471 3.48818
head 9.52637 -1.20301 2.47318
rclavicle -9.93923e-014 5.56597e-015
rhumerus -38.3833 -11.6449 -79.8494
rradius 33.1418
rwrist 2.94436
rhand -17.2397 13.1817
rfingers 7.12502
rthumb 9.004 -16.6062
lclavicle -9.93923e-014 5.56597e-015
lhumerus -29.5692 -1.31635 88.4781
lradius 42.0141
lwrist -0.615764
lhand -15.4957 26.5721
lfingers 7.12502
lthumb 10.6867 56.2803
rfemur -36.0323 1.31063 8.34383
rtibia 27.1145
rfoot -2.82932 -9.83786
rtoes 1.1058
lfemur 4.22323 1.21701 -35.669
ltibia 20.1056
lfoot -18.4509 1.54131
ltoes 4.65321
187
root 0.242153 17.0504 6.09257 8.58662 40.9887 8.65851
lowerback 7.76079 -1.88448 -7.6151
upperback 0.68496 -3.11218 1.10815
thorax -3.17188 -1.43794 5.75465
lowerneck -15.9143 -2.50582 -9.24386
upperneck 21.8891 -1.86559 3.7123
head 9.69981 -1.18399 2.60214
rclavicle -1.5207e-014 1.66979e-014
rhumerus -38.5734 -11.7252 -79.852
rradius 32.858
rwrist 3.15338
rhand -17.2208 12.9036
rfingers 7.12502
rthumb 9.02226 -16.8834
lclavicle -1.5207e-014 1.66979e-014
lhumerus -29.3026 -1.39121 88.2702
lradius 42.59
lwrist -0.941677
lhand -15.4862 25.8853
lfingers 7.12502
lthumb 10.6958 55.593
rfemur -35.6584 1.61474 8.84093
rtibia 23.935
rfoot -3.88894 -11.5476
rtoes 5.00892
lfemur 5.52664 0.968666 -34.9102
ltibia 19.1491
lfoot -18.3771 1.29622
ltoes 3.70874
